<svg width="49" height="37" viewBox="0 0 49 37" fill="none" xmlns="http://www.w3.org/2000/svg">
<g clip-path="url(#clip0_2158_635)">
<path d="M16.6498 31.7636C16.3994 31.7771 16.1514 31.7059 15.9431 31.5609C15.7348 31.4159 15.5777 31.2049 15.4955 30.9598L14.0649 26.6954C13.4488 24.8398 12.3828 23.1767 10.9688 21.8653C9.55485 20.5538 7.84023 19.6376 5.9888 19.2045L1.7325 18.1941C1.48808 18.1359 1.26837 17.9971 1.10658 17.7987C0.944802 17.6003 0.849742 17.3532 0.835777 17.0946C0.821813 16.836 0.889704 16.58 1.02918 16.3654C1.16866 16.1508 1.37215 15.9891 1.60889 15.9049L5.73162 14.4421C7.52563 13.812 9.13163 12.7166 10.3961 11.2605C11.6606 9.80435 12.5413 8.03618 12.9541 6.12497L13.9171 1.7313C13.9726 1.47898 14.1061 1.25249 14.2976 1.08604C14.489 0.919604 14.7279 0.822268 14.9782 0.808754C15.2284 0.79524 15.4764 0.866282 15.6847 1.01114C15.8929 1.15599 16.0501 1.36679 16.1324 1.61166L17.563 5.87608C18.1792 7.73172 19.2452 9.39476 20.6591 10.7062C22.0731 12.0177 23.7877 12.9338 25.6391 13.367L29.8954 14.3774C30.1398 14.4356 30.3595 14.5744 30.5213 14.7728C30.6831 14.9711 30.7782 15.2183 30.7921 15.4769C30.8061 15.7355 30.7382 15.9914 30.5987 16.2061C30.4593 16.4207 30.2558 16.5823 30.019 16.6665L25.8963 18.1294C24.1023 18.7595 22.4963 19.8549 21.2318 21.311C19.9673 22.7672 19.0866 24.5353 18.6739 26.4465L17.7108 30.8402C17.6555 31.0927 17.522 31.3194 17.3306 31.486C17.1391 31.6526 16.9002 31.75 16.6498 31.7636ZM6.1813 16.8059L6.49353 16.8814C8.72791 17.4043 10.7972 18.51 12.5036 20.0928C14.21 21.6756 15.4966 23.6826 16.2404 25.922L16.3466 26.2347L16.4186 25.9124C16.9168 23.6059 17.9798 21.472 19.5058 19.7146C21.0319 17.9573 22.97 16.6352 25.1351 15.8747L25.4374 15.7661L25.1252 15.6906C22.8908 15.1677 20.8215 14.062 19.1151 12.4792C17.4087 10.8964 16.1221 8.88945 15.3784 6.65L15.2765 6.33389L15.2046 6.6562C14.7063 8.96272 13.6434 11.0966 12.1173 12.8539C10.5913 14.6113 8.65309 15.9333 6.48802 16.6938L6.1813 16.8059Z" fill="#27272F" fill-opacity="0.2"/>
<path d="M40.4551 36.0381C40.313 36.0458 40.1721 36.0054 40.0538 35.923C39.9355 35.8407 39.8463 35.7208 39.7996 35.5817L38.9872 33.16C38.6373 32.1062 38.032 31.1618 37.229 30.417C36.4261 29.6722 35.4523 29.152 34.4009 28.906L31.9839 28.3322C31.8451 28.2992 31.7203 28.2203 31.6284 28.1077C31.5365 27.995 31.4826 27.8547 31.4746 27.7078C31.4667 27.561 31.5053 27.4156 31.5845 27.2937C31.6637 27.1719 31.7792 27.0801 31.9137 27.0323L34.2549 26.2015C35.2737 25.8437 36.1857 25.2216 36.9038 24.3947C37.6219 23.5678 38.122 22.5637 38.3564 21.4784L38.9033 18.9833C38.9348 18.84 39.0106 18.7114 39.1194 18.6168C39.2281 18.5223 39.3637 18.467 39.5059 18.4594C39.648 18.4517 39.7888 18.492 39.9071 18.5743C40.0253 18.6566 40.1146 18.7763 40.1613 18.9153L40.9737 21.337C41.3237 22.3908 41.929 23.3352 42.732 24.08C43.5349 24.8248 44.5086 25.345 45.56 25.591L47.9771 26.1648C48.1159 26.1979 48.2407 26.2767 48.3326 26.3893C48.4244 26.502 48.4784 26.6423 48.4863 26.7892C48.4943 26.936 48.4557 27.0814 48.3765 27.2033C48.2973 27.3251 48.1817 27.4169 48.0473 27.4648L45.7061 28.2955C44.6873 28.6533 43.7753 29.2754 43.0572 30.1023C42.3391 30.9292 41.839 31.9333 41.6046 33.0187L41.0577 35.5137C41.0263 35.6571 40.9505 35.7858 40.8417 35.8805C40.733 35.9751 40.5973 36.0304 40.4551 36.0381ZM34.5103 27.5439L34.6876 27.5868C35.9564 27.8837 37.1315 28.5116 38.1006 29.4104C39.0696 30.3093 39.8003 31.449 40.2226 32.7208L40.283 32.8983L40.3238 32.7153C40.6068 31.4055 41.2104 30.1937 42.077 29.1957C42.9437 28.1977 44.0443 27.447 45.2738 27.0151L45.4455 26.9534L45.2682 26.9105C43.9993 26.6136 42.8242 25.9857 41.8551 25.0868C40.8861 24.188 40.1555 23.0483 39.7331 21.7765L39.6753 21.597L39.6344 21.78C39.3515 23.0899 38.7478 24.3017 37.8812 25.2996C37.0146 26.2976 35.914 27.0484 34.6845 27.4803L34.5103 27.5439Z" fill="#27272F" fill-opacity="0.2"/>
</g>
<defs>
<clipPath id="clip0_2158_635">
<rect width="49" height="37" fill="white"/>
</clipPath>
</defs>
</svg>
