<svg width="50" height="50" viewBox="0 0 50 50" fill="none" xmlns="http://www.w3.org/2000/svg">
<path fill-rule="evenodd" clip-rule="evenodd" d="M6.25 9.375C6.25 8.5462 6.57924 7.75134 7.16529 7.16529C7.75134 6.57924 8.5462 6.25 9.375 6.25H40.625C41.4538 6.25 42.2487 6.57924 42.8347 7.16529C43.4208 7.75134 43.75 8.5462 43.75 9.375V13.7208C43.7498 14.8258 43.3106 15.8854 42.5292 16.6667L31.25 27.9458V43.4125C31.2501 43.8032 31.1502 44.1874 30.96 44.5286C30.7698 44.8699 30.4955 45.1568 30.1632 45.3622C29.8309 45.5676 29.4516 45.6846 29.0613 45.7022C28.671 45.7197 28.2827 45.6372 27.9333 45.4625L20.1896 41.5917C19.757 41.3754 19.3932 41.0429 19.139 40.6316C18.8847 40.2202 18.75 39.7461 18.75 39.2625V27.9458L7.47083 16.6667C6.68938 15.8854 6.25024 14.8258 6.25 13.7208V9.375ZM10.4167 10.4167V13.7208L22 25.3042C22.2905 25.5943 22.521 25.9389 22.6783 26.3182C22.8356 26.6974 22.9166 27.104 22.9167 27.5146V38.2958L27.0833 40.3792V27.5146C27.0833 26.6854 27.4125 25.8896 28 25.3062L39.5833 13.7188V10.4167H10.4167Z" fill="#F6F6F6"/>
</svg>
