<svg width="50" height="50" viewBox="0 0 50 50" fill="none" xmlns="http://www.w3.org/2000/svg">
<path d="M33.3748 36.6873C29.6072 39.6117 24.8667 40.9904 20.1184 40.5429C15.37 40.0953 10.9707 37.855 7.81592 34.2781C4.66113 30.7012 2.988 26.0565 3.1371 21.2894C3.28621 16.5224 5.24635 11.9913 8.61852 8.61852C11.9913 5.24635 16.5224 3.28621 21.2894 3.1371C26.0565 2.988 30.7012 4.66113 34.2781 7.81592C37.855 10.9707 40.0953 15.37 40.5429 20.1184C40.9904 24.8667 39.6117 29.6072 36.6873 33.3748L46.1873 42.8748C46.4958 43.1613 46.7213 43.5256 46.8401 43.9295C46.9589 44.3334 46.9666 44.7619 46.8623 45.1698C46.758 45.5777 46.5456 45.9499 46.2475 46.2472C45.9494 46.5445 45.5767 46.7559 45.1685 46.8591C44.7611 46.9636 44.3331 46.9563 43.9294 46.8381C43.5258 46.7198 43.1615 46.495 42.8748 46.1873L33.3748 36.6873ZM35.9373 21.8748C35.9651 20.011 35.622 18.1604 34.928 16.4305C34.234 14.7005 33.2029 13.1259 31.8948 11.7981C30.5866 10.4703 29.0275 9.41586 27.3081 8.69615C25.5887 7.97643 23.7434 7.6058 21.8795 7.6058C20.0155 7.6058 18.1702 7.97643 16.4508 8.69615C14.7314 9.41586 13.1723 10.4703 11.8642 11.7981C10.556 13.1259 9.52495 14.7005 8.83095 16.4305C8.13695 18.1604 7.79386 20.011 7.82165 21.8748C7.8767 25.5668 9.382 29.089 12.0124 31.6805C14.6427 34.2719 18.187 35.7246 21.8795 35.7246C25.5719 35.7246 29.1162 34.2719 31.7466 31.6805C34.3769 29.089 35.8822 25.5668 35.9373 21.8748Z" fill="#F6F6F6"/>
</svg>
