<svg width="50" height="50" viewBox="0 0 50 50" fill="none" xmlns="http://www.w3.org/2000/svg">
<g clip-path="url(#clip0_2382_645)">
<path d="M49.9998 19.6248C50.0009 18.946 49.8222 18.279 49.4819 17.6917C49.1415 17.1044 48.6518 16.6177 48.0623 16.281L26.9998 3.78101C26.3928 3.42685 25.7026 3.24023 24.9998 3.24023C24.297 3.24023 23.6069 3.42685 22.9998 3.78101L1.90608 16.281C1.32318 16.6269 0.840303 17.1185 0.504914 17.7075C0.169525 18.2965 -0.00683594 18.9626 -0.00683594 19.6404C-0.00683594 20.3182 0.169525 20.9843 0.504914 21.5733C0.840303 22.1623 1.32318 22.6539 1.90608 22.9998L7.90608 26.4998V35.281C7.90969 35.9673 8.08981 36.6411 8.42913 37.2377C8.76845 37.8342 9.25555 38.3334 9.84358 38.6873L23.1248 46.3435C23.7178 46.6718 24.3845 46.8441 25.0623 46.8441C25.7401 46.8441 26.4068 46.6718 26.9998 46.3435L40.2811 38.6873C40.8691 38.3334 41.3562 37.8342 41.6955 37.2377C42.0348 36.6411 42.215 35.9673 42.2186 35.281V26.406L46.0936 24.1248V32.6248H49.9998V19.6248ZM38.3436 35.2498L24.9998 42.9373L11.8123 35.281V28.8123L22.9998 35.4685C23.6089 35.8166 24.2983 35.9996 24.9998 35.9996C25.7014 35.9996 26.3907 35.8166 26.9998 35.4685L38.3123 28.7185L38.3436 35.2498ZM24.9998 32.0935L3.90608 19.5935L24.9998 7.06226L46.0936 19.5623L24.9998 32.0935Z" fill="#F6F6F6"/>
</g>
<defs>
<clipPath id="clip0_2382_645">
<rect width="50" height="50" fill="white"/>
</clipPath>
</defs>
</svg>
